<svg width="1280" height="1280" viewBox="0 0 1280 1280" fill="none" xmlns="http://www.w3.org/2000/svg">
<circle cx="640" cy="640" r="640" fill="#922338"/>
<path d="M950.003 562.497C950.003 755.976 735.367 957.476 663.292 1019.71C656.577 1024.76 648.404 1027.49 640.003 1027.49C631.602 1027.49 623.429 1024.76 616.714 1019.71C544.639 957.476 330.003 755.976 330.003 562.497C330.003 480.28 362.664 401.43 420.8 343.294C478.936 285.158 557.786 252.497 640.003 252.497C722.22 252.497 801.07 285.158 859.206 343.294C917.342 401.43 950.003 480.28 950.003 562.497Z" stroke="white" stroke-width="77.5" stroke-linecap="round" stroke-linejoin="round"/>
<path d="M640 678.753C704.203 678.753 756.25 626.706 756.25 562.503C756.25 498.3 704.203 446.253 640 446.253C575.797 446.253 523.75 498.3 523.75 562.503C523.75 626.706 575.797 678.753 640 678.753Z" fill="white" stroke="white" stroke-width="77.5" stroke-linecap="round" stroke-linejoin="round"/>
</svg>
